<svg xmlns="http://www.w3.org/2000/svg" viewBox="0 0 32 32" fill="none">
  <path d="M29.3333 11.5333L18.1333 2.93333C17.0667 2.13333 15.6 2.13333 14.5333 2.93333L3.33334 11.5333C2.66667 12.1333 2.26667 13.0667 2.26667 14V26.4C2.26667 28.1333 3.73334 29.6 5.46667 29.6H26.6667C28.4 29.6 29.8667 28.1333 29.8667 26.4V14C30.4 13.0667 30 12.1333 29.3333 11.5333ZM14.9333 24.9333H7.33334V18.4C7.33334 15.8667 9.40001 13.8 11.9333 13.8C14.4667 13.8 16.5333 15.8667 16.5333 18.4V25.0667H14.9333V24.9333ZM24.9333 24.9333H20V18.4C20 14.5333 16.5333 11.3333 12.6667 11.3333C10.5333 11.3333 8.66667 12.2667 7.33334 13.7333V11.8667C7.33334 11.6 7.46667 11.3333 7.73334 11.2L15.4667 5.2C15.7333 5.06667 16 5.06667 16.2667 5.2L25.0667 12.1333C25.3333 12.2667 25.4667 12.5333 25.4667 12.8V25.0667H24.9333V24.9333Z" fill="#646CFF"/>
</svg>
